<svg xmlns="http://www.w3.org/2000/svg" viewBox="0 0 1000 600">
    <!-- 背景 -->
    <rect width="1000" height="600" fill="#ffffff"/>
    
    <!-- 标题 -->
    <text x="500" y="40" text-anchor="middle" font-size="24" fill="#333333" font-weight="bold">
        LLaMA 文件依赖关系图
    </text>

    <!-- 图例 -->
    <g transform="translate(50,70)">
        <text x="0" y="0" font-size="14" fill="#333">图例:</text>
        <line x1="0" y1="20" x2="40" y2="20" stroke="#2196f3" stroke-width="2" marker-end="url(#arrow)"/>
        <text x="50" y="25" font-size="12" fill="#666">配置依赖</text>
        
        <line x1="0" y1="40" x2="40" y2="40" stroke="#4caf50" stroke-width="2" stroke-dasharray="5,5" marker-end="url(#arrow)"/>
        <text x="50" y="45" font-size="12" fill="#666">调用关系</text>
        
        <line x1="0" y1="60" x2="40" y2="60" stroke="#ff9800" stroke-width="2" marker-end="url(#arrow)"/>
        <text x="50" y="65" font-size="12" fill="#666">权重转换</text>
    </g>

    <!-- 箭头定义 -->
    <defs>
        <marker id="arrow" viewBox="0 0 10 10" refX="9" refY="5"
                markerWidth="6" markerHeight="6" orient="auto">
            <path d="M 0 0 L 10 5 L 0 10 z" fill="#333"/>
        </marker>
    </defs>

    <!-- 主要文件节点 -->
    <g transform="translate(0,100)">
        <!-- configuration_llama.py -->
        <rect x="100" y="100" width="200" height="60" rx="5" fill="#e3f2fd" stroke="#2196f3" stroke-width="2"/>
        <text x="200" y="135" text-anchor="middle" font-size="14">configuration_llama.py</text>

        <!-- modeling_llama.py -->
        <rect x="400" y="100" width="200" height="60" rx="5" fill="#e8f5e9" stroke="#4caf50" stroke-width="2"/>
        <text x="500" y="135" text-anchor="middle" font-size="14">modeling_llama.py</text>

        <!-- tokenization_llama.py -->
        <rect x="100" y="250" width="200" height="60" rx="5" fill="#fff3e0" stroke="#ff9800" stroke-width="2"/>
        <text x="200" y="285" text-anchor="middle" font-size="14">tokenization_llama.py</text>

        <!-- tokenization_llama_fast.py -->
        <rect x="400" y="250" width="200" height="60" rx="5" fill="#fff3e0" stroke="#ff9800" stroke-width="2"/>
        <text x="500" y="285" text-anchor="middle" font-size="14">tokenization_llama_fast.py</text>

        <!-- convert_llama_weights_to_hf.py -->
        <rect x="700" y="100" width="200" height="60" rx="5" fill="#fce4ec" stroke="#e91e63" stroke-width="2"/>
        <text x="800" y="135" text-anchor="middle" font-size="14">convert_llama_weights_to_hf.py</text>

        <!-- modeling_flax_llama.py -->
        <rect x="700" y="250" width="200" height="60" rx="5" fill="#e8f5e9" stroke="#4caf50" stroke-width="2"/>
        <text x="800" y="285" text-anchor="middle" font-size="14">modeling_flax_llama.py</text>
    </g>

    <!-- 连接线 -->
    <g stroke-width="2" fill="none" marker-end="url(#arrow)">
        <!-- 配置依赖 -->
        <path d="M300,230 L400,230" stroke="#2196f3"/>
        <path d="M300,230 L700,230" stroke="#2196f3"/>
        
        <!-- 调用关系 -->
        <path d="M500,260 L500,310" stroke="#4caf50" stroke-dasharray="5,5"/>
        <path d="M200,310 L400,310" stroke="#4caf50" stroke-dasharray="5,5"/>
        
        <!-- 权重转换 -->
        <path d="M800,160 L800,250" stroke="#ff9800"/>
        <path d="M700,130 L600,130" stroke="#ff9800"/>
    </g>

    <!-- 依赖说明 -->
    <g transform="translate(100,450)">
        <rect width="800" height="100" rx="5" fill="#f5f5f5" stroke="#9e9e9e" stroke-width="1"/>
        <text x="20" y="30" font-size="14" fill="#333" font-weight="bold">主要依赖说明:</text>
        <text x="20" y="55" font-size="12" fill="#666">1. configuration_llama.py 为其他所有模块提供配置信息</text>
        <text x="20" y="75" font-size="12" fill="#666">2. modeling_llama.py 依赖 tokenization_llama.py 处理输入</text>
        <text x="20" y="95" font-size="12" fill="#666">3. convert_llama_weights_to_hf.py 与 modeling_flax_llama.py 都依赖基本配置和模型结构</text>
    </g>
</svg>
