<svg xmlns="http://www.w3.org/2000/svg" viewBox="0 0 800 600">
    <!-- 背景 -->
    <rect width="800" height="600" fill="#ffffff"/>
    
    <!-- 标题 -->
    <text x="400" y="50" text-anchor="middle" font-size="24" fill="#333333" font-weight="bold">
        LLaMA 模型结构
    </text>

    <!-- 核心文件模块 -->
    <g transform="translate(100,100)">
        <!-- 配置模块 -->
        <rect x="0" y="0" width="200" height="100" rx="10" fill="#e6f3ff" stroke="#2196f3" stroke-width="2"/>
        <text x="100" y="40" text-anchor="middle" font-size="16" fill="#333">
            configuration_llama.py
        </text>
        <text x="100" y="70" text-anchor="middle" font-size="12" fill="#666">
            模型配置文件
        </text>

        <!-- 模型模块 -->
        <rect x="300" y="0" width="200" height="100" rx="10" fill="#fff8e1" stroke="#ffc107" stroke-width="2"/>
        <text x="400" y="40" text-anchor="middle" font-size="16" fill="#333">
            modeling_llama.py
        </text>
        <text x="400" y="70" text-anchor="middle" font-size="12" fill="#666">
            模型架构实现
        </text>

        <!-- 分词器模块 -->
        <rect x="0" y="150" width="200" height="100" rx="10" fill="#f1f8e9" stroke="#4caf50" stroke-width="2"/>
        <text x="100" y="190" text-anchor="middle" font-size="16" fill="#333">
            tokenization_llama.py
        </text>
        <text x="100" y="220" text-anchor="middle" font-size="12" fill="#666">
            基础分词器
        </text>

        <!-- 快速分词器模块 -->
        <rect x="300" y="150" width="200" height="100" rx="10" fill="#e8f5e9" stroke="#66bb6a" stroke-width="2"/>
        <text x="400" y="190" text-anchor="middle" font-size="16" fill="#333">
            tokenization_llama_fast.py
        </text>
        <text x="400" y="220" text-anchor="middle" font-size="12" fill="#666">
            快速分词器
        </text>
    </g>

    <!-- 连接线 -->
    <g stroke="#999" stroke-width="2" fill="none">
        <!-- 配置到模型 -->
        <path d="M300,150 L500,150"/>
        <!-- 基础分词器到快速分词器 -->
        <path d="M300,300 L500,300"/>
        <!-- 配置到分词器 -->
        <path d="M200,200 L200,250"/>
        <!-- 模型到分词器 -->
        <path d="M500,200 L500,250"/>
    </g>

    <!-- 依赖关系图 -->
    <g transform="translate(100,400)">
        <rect x="0" y="0" width="600" height="150" rx="10" fill="#f5f5f5" stroke="#9e9e9e" stroke-width="2"/>
        <text x="300" y="30" text-anchor="middle" font-size="16" fill="#333" font-weight="bold">
            外部依赖关系
        </text>
        <text x="20" y="60" font-size="14" fill="#666">
            - PyTorch: 深度学习框架
        </text>
        <text x="20" y="90" font-size="14" fill="#666">
            - Transformers: 基础库
        </text>
        <text x="20" y="120" font-size="14" fill="#666">
            - Tokenizers: 快速分词库
        </text>
    </g>
</svg>
